<svg width="1024" height="1024" viewBox="0 0 1024 1024" fill="none" xmlns="http://www.w3.org/2000/svg">
  <rect width="1024" height="1024" fill="#3F2BBF"/>
  <path d="M477 447L315 522C286 535 276 570 296 594C308 609 326 615 345 612L492 592L477 447Z" fill="#FFFFFF"/>
  <path d="M547 447L709 522C738 535 748 570 728 594C716 609 698 615 679 612L532 592L547 447Z" fill="#FFFFFF"/>
  <path d="M488 681L392 716C371 724 360 746 367 766C373 781 388 790 404 789L500 786L488 681Z" fill="#FFFFFF"/>
  <path d="M536 681L632 716C653 724 664 746 657 766C651 781 636 790 620 789L524 786L536 681Z" fill="#FFFFFF"/>
  <path d="M512 312C560 312 582 390 582 518C582 655 552 758 526 811C520 823 504 823 498 811C472 758 442 655 442 518C442 390 464 312 512 312Z" fill="#EFE8FF"/>
  <path d="M482 345C501 331 536 331 553 346C563 355 571 376 568 384C566 390 556 390 543 386C523 380 501 380 481 386C468 390 458 390 456 384C453 376 462 355 482 345Z" fill="#8677D9"/>
</svg>
